<svg width="150" height="150" fill="none" xmlns="http://www.w3.org/2000/svg">
  <defs>
    <linearGradient id="a" x1="73.846" y1="74.622" x2="51.288" y2="116.989" gradientUnits="userSpaceOnUse">
      <stop stop-color="#F03E3D"/>
      <stop offset="1" stop-color="#870404"/>
    </linearGradient>
    <linearGradient id="d" x1="63.812" y1="63.738" x2="90.924" y2="100.679" gradientUnits="userSpaceOnUse">
      <stop stop-color="#FFF" stop-opacity=".251"/>
      <stop offset="1" stop-color="#FFF" stop-opacity="0"/>
    </linearGradient>
    <linearGradient id="g" x1="102.332" y1="58.757" x2="97.803" y2="63.873" gradientUnits="userSpaceOnUse">
      <stop stop-color="#FF759F" stop-opacity="0"/>
      <stop offset="1" stop-color="#FF196E"/>
    </linearGradient>
    <linearGradient id="i" x1="88.174" y1="77.385" x2="63.772" y2="94.81" gradientUnits="userSpaceOnUse">
      <stop stop-color="#FFF"/>
      <stop offset="1" stop-color="#FFF" stop-opacity=".2"/>
    </linearGradient>
    <linearGradient id="j" x1="70.733" y1="76.424" x2="85.157" y2="88.29" gradientUnits="userSpaceOnUse">
      <stop stop-color="#FFF" stop-opacity=".251"/>
      <stop offset="1" stop-color="#FFF" stop-opacity="0"/>
    </linearGradient>
    <filter id="b" x="37.455" y="39.201" width="65.243" height="66.795" filterUnits="userSpaceOnUse" color-interpolation-filters="sRGB">
      <feFlood flood-opacity="0" result="BackgroundImageFix"/>
      <feBlend in="SourceGraphic" in2="BackgroundImageFix" result="shape"/>
      <feGaussianBlur stdDeviation="5.667" result="effect_layerBlur_1"/>
    </filter>
    <filter id="c" x="56.035" y="57.297" width="44.579" height="48.703" filterUnits="userSpaceOnUse" color-interpolation-filters="sRGB">
      <feFlood flood-opacity="0" result="BackgroundImageFix"/>
      <feGaussianBlur in="BackgroundImage" stdDeviation="8"/>
      <feComposite in2="SourceAlpha" operator="in" result="effect_backgroundBlur_1"/>
      <feBlend in="SourceGraphic" in2="effect_backgroundBlur_1" result="shape"/>
    </filter>
    <filter id="e" x="70.979" y="77.34" width="31.551" height="28.215" filterUnits="userSpaceOnUse" color-interpolation-filters="sRGB">
      <feFlood flood-opacity="0" result="BackgroundImageFix"/>
      <feGaussianBlur in="BackgroundImage" stdDeviation="5"/>
      <feComposite in2="SourceAlpha" operator="in" result="effect_backgroundBlur_1"/>
      <feColorMatrix in="SourceAlpha" values="0 0 0 0 0 0 0 0 0 0 0 0 0 0 0 0 0 0 127 0" result="hardAlpha"/>
      <feOffset dx="5" dy="5"/>
      <feGaussianBlur stdDeviation="3.333"/>
      <feComposite in2="hardAlpha" operator="out" k2="-1" k3="1"/>
      <feColorMatrix values="0 0 0 0 0.57647 0 0 0 0 0.36078 0 0 0 0 0.93725 0 0 0 0.5 0"/>
      <feBlend in2="effect_backgroundBlur_1" result="effect_dropShadow_2"/>
      <feBlend in="SourceGraphic" in2="effect_dropShadow_2" result="shape"/>
    </filter>
    <filter id="f" x="98.744" y="54.866" width="6.256" height="6.863" filterUnits="userSpaceOnUse" color-interpolation-filters="sRGB">
      <feFlood flood-opacity="0" result="BackgroundImageFix"/>
      <feGaussianBlur in="BackgroundImage" stdDeviation="5"/>
      <feComposite in2="SourceAlpha" operator="in" result="effect_backgroundBlur_1"/>
      <feBlend in="SourceGraphic" in2="effect_backgroundBlur_1" result="shape"/>
    </filter>
    <filter id="h" x="62.127" y="69.677" width="42.653" height="35.001" filterUnits="userSpaceOnUse" color-interpolation-filters="sRGB">
      <feFlood flood-opacity="0" result="BackgroundImageFix"/>
      <feGaussianBlur in="BackgroundImage" stdDeviation="5"/>
      <feComposite in2="SourceAlpha" operator="in" result="effect_backgroundBlur_1"/>
      <feColorMatrix in="SourceAlpha" values="0 0 0 0 0 0 0 0 0 0 0 0 0 0 0 0 0 0 127 0" result="hardAlpha"/>
      <feOffset dx="5" dy="5"/>
      <feGaussianBlur stdDeviation="3.333"/>
      <feComposite in2="hardAlpha" operator="out" k2="-1" k3="1"/>
      <feColorMatrix values="0 0 0 0 1 0 0 0 0 0.32157 0 0 0 0 0.54902 0 0 0 0.5 0"/>
      <feBlend in2="effect_backgroundBlur_1" result="effect_dropShadow_2"/>
      <feBlend in="SourceGraphic" in2="effect_dropShadow_2" result="shape"/>
    </filter>
  </defs>
  <rect rx="75" width="150" height="150" fill="#FFEFEF"/>
  <path d="m74.67 47.42-19.53 6.01c-7.11 2.19-10.15 7.71-8.39 15.26l4.83 20.68c1.76 7.55 6.79 10.58 13.91 8.39l19.53-6.01c7.11-2.19 10.13-7.7 8.37-15.25l-4.83-20.68c-1.76-7.55-6.77-10.59-13.89-8.4Z" fill="url(#a)"/>
  <g opacity=".5" filter="url(#b)">
    <path d="m73.28 56.67-12.9 3.97c-4.7 1.45-6.74 4.96-5.63 9.7l3.03 13.01c1.11 4.74 4.4 6.61 9.1 5.16l12.9-3.97c4.7-1.44 6.72-4.95 5.62-9.69l-3.04-13.01c-1.1-4.74-4.38-6.61-9.08-5.17Z" fill="#E31313"/>
  </g>
  <g filter="url(#c)">
    <path d="M87.56 58.29H69.1c-7.22 0-12.07 5.56-12.07 13.83v19.07c0 8.25 4.85 13.81 12.07 13.81h18.46c7.22 0 12.05-5.56 12.05-13.81V72.12c0-8.27-4.83-13.83-12.05-13.83Z" fill="#F03E3D"/>
  </g>
  <path d="M87.56 57.29H69.1q-3.46 0-6.14 1.45-1.87 1-3.35 2.71-.5.57-.93 1.18-2.65 3.83-2.65 9.49v19.07q0 5.63 2.63 9.44.44.63.95 1.21 1.48 1.71 3.35 2.71Q65.64 106 69.1 106h18.46q3.46 0 6.14-1.45 1.86-1.01 3.34-2.71.5-.56.92-1.17 2.65-3.82 2.65-9.48V72.12q0-5.7-2.67-9.53-.42-.59-.9-1.14-1.48-1.7-3.34-2.71-2.68-1.45-6.14-1.45Zm-18.46 1h18.46c7.22 0 12.05 5.56 12.05 13.83v19.07c0 8.25-4.83 13.81-12.05 13.81H69.1c-7.22 0-12.07-5.56-12.07-13.81V72.12c0-8.27 4.85-13.83 12.07-13.83Z" fill="url(#d)" fill-rule="evenodd"/>
  <g filter="url(#e)"/>
  <g filter="url(#f)">
    <path d="M101.87 54.86c-1.73 0-3.13 1.54-3.13 3.43 0 1.9 1.4 3.43 3.13 3.43s3.13-1.53 3.13-3.43c0-.91-.33-1.78-.92-2.42-.59-.65-1.38-1.01-2.21-1.01Z" fill="url(#g)"/>
  </g>
  <g filter="url(#h)">
    <path d="m89.46 77.51-6.09 8.61c-.25.37-.64.62-1.06.68-.42.05-.85-.08-1.18-.37l-5.84-5.03-5.26 7.47c-.39.66-1.13.96-1.81.72-.68-.23-1.13-.94-1.1-1.73 0-.38.12-.76.34-1.06l6.29-8.9c.25-.37.63-.62 1.05-.68.42-.06.85.06 1.18.35l5.84 5.04 5.13-7.23c.25-.38.62-.63 1.04-.69.41-.07.84.06 1.17.34.69.59.82 1.67.3 2.44v.04Z" fill="url(#i)"/>
  </g>
  <path d="m75.59 81.67 5.54 4.76c.33.29.76.42 1.18.37.42-.06.81-.31 1.06-.68l6.09-8.61v-.04c.52-.77.39-1.85-.3-2.44-.33-.28-.76-.41-1.17-.34-.42.06-.79.31-1.04.69l-4.9 6.91-.23.32-.3-.26-5.54-4.78c-.33-.29-.76-.41-1.18-.35-.42.06-.8.31-1.05.68l-6.29 8.9c-.22.3-.34.68-.34 1.06-.03.79.42 1.5 1.1 1.73.68.24 1.42-.06 1.81-.72l5.02-7.14.24-.33.3.27Zm13.47-4.29-6.01 8.51h-.01q-.11.17-.27.29l-.08.06q-.14.09-.29.13-.07.02-.14.03-.11.01-.21.01-.13-.01-.25-.05-.06-.02-.11-.04-.16-.07-.3-.19l-6.18-5.32-5.52 7.84-.01.02q-.15.25-.36.4-.11.08-.23.13-.19.07-.38.07-.18.01-.36-.06-.13-.04-.24-.11-.22-.14-.37-.38-.1-.15-.15-.32-.08-.24-.07-.52v-.02q0-.29.1-.53.06-.16.16-.3l6.3-8.9q.14-.21.33-.34.01 0 .02-.01.14-.09.29-.13.07-.02.14-.03.11-.02.21-.01.12 0 .24.04l.12.04q.15.07.29.18l6.17 5.33 5.39-7.6q.11-.17.26-.29l.08-.06q.14-.09.29-.13l.14-.04q.1-.01.21-.01.12.01.23.04l.12.04q.16.07.29.18.04.04.08.07.14.15.23.33.03.06.06.13.07.17.09.37.02.15.01.31-.01.11-.03.22-.04.17-.12.33-.04.08-.09.15l-.07.1v.04Z" fill="url(#j)" fill-rule="evenodd"/>
</svg>
