<svg aria-hidden="true" style="position: absolute; width: 0; height: 0; overflow: hidden;" version="1.1"
    xmlns="http://www.w3.org/2000/svg" xmlns:xlink="http://www.w3.org/1999/xlink">
    <defs>
        <symbol id="close" viewBox="0 0 32 32">
            <path
                d="M32 3.223l-3.223-3.223-12.777 12.777-12.777-12.777-3.223 3.223 12.777 12.777-12.777 12.777 3.223 3.223 12.777-12.777 12.777 12.777 3.223-3.223-12.777-12.777 12.777-12.777z">
            </path>
        </symbol>
        <symbol id="icon-check" viewBox="0 0 32 32">
            <path fill="#2196f3" style="fill:var(--color1, #2196f3)"
                d="M4 1h24a4 4 0 0 1 4 4v22a4 4 0 0 1-4 4H4a4 4 0 0 1-4-4V5a4 4 0 0 1 4-4z" />
            <path fill="#fff" style="fill:var(--color2, #fff)"
                d="m12.992 21.624-5.216-4.976L6 18.331 12.992 25 28 10.682 26.236 9 12.991 21.624z" />
            <path fill="#fff" style="fill:var(--color2, #fff)"
                d="M12.992 21.071 26.237 8.447l2.343 2.235-15.588 14.871-7.572-7.224 2.357-2.233 5.215 4.975zm0 .553-5.216-4.976L6 18.331 12.992 25 28 10.682 26.236 9 12.991 21.624z" />
        </symbol>
        <symbol id="icon-email-black" viewBox="0 0 32 32">
            <path
                d="M26.667 5.333H5.334A2.664 2.664 0 0 0 2.68 8l-.013 16c0 1.467 1.2 2.667 2.667 2.667h21.333c1.467 0 2.667-1.2 2.667-2.667V8c0-1.467-1.2-2.667-2.667-2.667zM26.133 11l-9.427 5.893a1.346 1.346 0 0 1-1.413 0L5.866 11a1.142 1.142 0 0 1-.533-.96c0-.893.973-1.427 1.734-.96L16 14.667l8.933-5.587a1.132 1.132 0 1 1 1.2 1.92z" />
        </symbol>
        <symbol id="icon-person-black" viewBox="0 0 32 32">
            <path
                d="M16 16c2.947 0 5.333-2.387 5.333-5.333S18.946 5.334 16 5.334c-2.947 0-5.333 2.387-5.333 5.333S13.054 16 16 16zm0 2.667c-3.56 0-10.667 1.787-10.667 5.333v1.333c0 .733.6 1.333 1.333 1.333h18.667c.733 0 1.333-.6 1.333-1.333V24c0-3.547-7.107-5.333-10.667-5.333z" />
        </symbol>
        <symbol id="icon-phone-black" viewBox="0 0 32 32">
            <path
                d="m24.881 19.774-3.268-.373a2.561 2.561 0 0 0-2.11.733l-2.367 2.368a19.362 19.362 0 0 1-8.478-8.478l2.38-2.38a2.561 2.561 0 0 0 .733-2.11l-.373-3.242a2.575 2.575 0 0 0-2.56-2.277H6.613c-1.454 0-2.663 1.209-2.574 2.663.682 10.987 9.469 19.761 20.444 20.443 1.453.09 2.663-1.119 2.663-2.573v-2.226a2.549 2.549 0 0 0-2.264-2.547z" />
        </symbol>
        <symbol id="icon-Vector" viewBox="0 0 32 32">
            <path
                d="M28.444 4.333v23.333H3.555V4.333h24.889zm0-3.333H3.555C1.599 1-.001 2.5-.001 4.333v23.333c0 1.833 1.6 3.333 3.556 3.333h24.889c1.956 0 3.556-1.5 3.556-3.333V4.333C32 2.5 30.4 1 28.444 1z" />
        </symbol>
    </defs>
</svg>