<svg aria-hidden="true" style="position:absolute;width:0;height:0;overflow:hidden" xmlns="http://www.w3.org/2000/svg">
  <defs>
    <symbol id="fedEx" viewBox="0 0 107 32">
      <path fill="#f60" style="fill:var(--color1, #f60)" d="m79.314 31.04 8.899-9.851-8.899-9.859h9.387l4.411 4.792 4.236-4.792h9.059l-8.853 9.813 8.975 9.897h-9.425l-4.366-4.83-4.32 4.83h-9.105z"/>
      <path fill="#f60" style="fill:var(--color1, #f60)" d="M79.314 6.918H69.242v4.411h10.072v6.659H69.242v6.11h10.072v6.941H61.836V-.001h17.478v6.918z"/>
      <path fill="#652c8f" style="fill:var(--color2, #652c8f)" d="M54.461 0v12.701h-.076c-1.638-1.851-3.672-2.491-6.042-2.491-4.846 0-8.495 3.246-9.783 7.543-1.463-4.731-5.227-7.634-10.819-7.634-4.541 0-8.122 2.011-9.996 5.28V11.33H8.358V6.919h10.24V.001H0v31.04h8.358V17.99h8.343c-.251.96-.381 1.989-.381 3.07 0 6.476 5.013 11.017 11.421 11.017 5.387 0 8.937-2.491 10.811-7.032h-7.17c-.968 1.364-1.707 1.768-3.642 1.768-2.248 0-4.183-1.935-4.183-4.229h14.59c.632 5.143 4.701 9.585 10.278 9.585a7.17 7.17 0 0 0 5.958-3.139h.076v2.011h7.375V.001h-7.375zM23.787 18.08c.465-1.966 2.019-3.261 3.954-3.261 2.133 0 3.604 1.25 3.992 3.261h-7.947zm26.202 8.229c-2.72 0-4.404-2.491-4.404-5.097 0-2.789 1.463-5.47 4.404-5.47 3.048 0 4.259 2.682 4.259 5.47 0 2.636-1.288 5.097-4.259 5.097z"/>
    </symbol>
    <symbol id="microsoft" viewBox="0 0 155 32">
      <path fill="#fff" style="fill:var(--color3, #fff)" d="M0 0h154.909v32H0V0z"/>
      <path fill="#737373" style="fill:var(--color4, #737373)" d="m54.676 18.429-.924 2.531h-.08a16.588 16.588 0 0 0-.895-2.48L47.824 6.444H42.98v19.178h3.207V13.789c0-.742 0-1.585-.029-2.633-.022-.516-.073-.916-.102-1.215h.08c.153.749.327 1.295.458 1.636l5.949 13.993h2.262l5.898-14.116c.124-.32.255-.967.385-1.513h.073a260.705 260.705 0 0 0-.153 3.447v12.16h3.411V6.392H59.75l-5.076 12.036zm12.975-6.625h3.338v13.745h-3.338V11.804zM69.345 6c-.56 0-1.025.196-1.411.545s-.589.793-.589 1.338c0 .524.204.967.589 1.316s.851.524 1.411.524c.567 0 1.055-.204 1.411-.524a1.72 1.72 0 0 0 .589-1.316c0-.516-.204-.967-.589-1.338-.335-.349-.822-.545-1.411-.545zm13.47 5.68a9.639 9.639 0 0 0-1.876-.196c-1.513 0-2.895.32-4.051.967-1.156.64-2.08 1.535-2.669 2.655-.611 1.142-.924 2.451-.924 3.964 0 1.316.313 2.487.902 3.549.589 1.04 1.411 1.884 2.509 2.458 1.055.567 2.284.865 3.673.865 1.585 0 2.945-.32 4.022-.916l.029-.022v-2.982l-.131.102a5.743 5.743 0 0 1-1.615.822c-.589.196-1.127.291-1.593.291-1.331 0-2.385-.371-3.127-1.185-.771-.793-1.156-1.884-1.156-3.251 0-1.411.385-2.531 1.185-3.353.793-.815 1.847-1.236 3.127-1.236 1.076 0 2.182.349 3.178 1.04l.131.102v-3.149l-.029-.029c-.436-.175-.924-.371-1.585-.495zm10.996-.102a3.59 3.59 0 0 0-2.255.771c-.56.444-.945 1.091-1.28 1.862h-.029v-2.407h-3.331v13.745h3.331v-7.025c0-1.185.262-2.182.822-2.902.567-.742 1.28-1.113 2.153-1.113.313 0 .618.073 1.004.124.356.102.618.196.793.32l.131.102v-3.229l-.08-.022c-.225-.145-.691-.225-1.258-.225zm9.084-.073c-2.335 0-4.211.669-5.513 1.985-1.338 1.316-1.978 3.127-1.978 5.411 0 2.131.669 3.869 1.949 5.135 1.28 1.236 3.025 1.884 5.207 1.884 2.284 0 4.102-.669 5.411-2.007 1.331-1.345 1.978-3.127 1.978-5.338 0-2.182-.618-3.92-1.876-5.185-1.207-1.265-2.975-1.884-5.178-1.884zm2.661 10.568c-.611.771-1.585 1.142-2.793 1.142s-2.182-.371-2.873-1.193c-.691-.764-1.025-1.884-1.025-3.295 0-1.469.364-2.582 1.025-3.375.691-.793 1.644-1.193 2.851-1.193 1.178 0 2.102.371 2.771 1.142.662.771 1.025 1.884 1.025 3.345-.051 1.491-.335 2.655-.982 3.425zm11.826-4.56c-1.047-.422-1.716-.749-2.022-1.018-.262-.247-.385-.596-.385-1.047 0-.371.153-.742.538-.989s.822-.371 1.462-.371c.56 0 1.149.102 1.716.247s1.076.371 1.491.669l.124.102v-3.025l-.073-.029a10.071 10.071 0 0 0-1.513-.422 11.206 11.206 0 0 0-1.644-.145c-1.593 0-2.895.371-3.927 1.185-1.025.771-1.513 1.811-1.513 3.033 0 .64.102 1.215.335 1.687.233.465.567.916 1.025 1.287.465.349 1.127.742 2.051 1.113.771.327 1.36.575 1.724.771a3.3 3.3 0 0 1 .764.596c.131.196.211.444.211.771 0 .916-.72 1.36-2.182 1.36-.567 0-1.156-.095-1.847-.32s-1.331-.545-1.876-.916l-.124-.102v3.149l.08.029c.487.218 1.076.371 1.789.545.72.124 1.36.218 1.927.218 1.716 0 3.127-.371 4.131-1.185 1.025-.793 1.564-1.811 1.564-3.127 0-.916-.262-1.738-.822-2.356a10.339 10.339 0 0 0-3.004-1.709zM130 11.505c-2.335 0-4.204.669-5.513 1.985s-1.971 3.127-1.971 5.411c0 2.131.662 3.869 1.949 5.135 1.28 1.236 3.025 1.884 5.2 1.884 2.284 0 4.109-.669 5.418-2.007 1.331-1.345 1.971-3.127 1.971-5.338 0-2.182-.618-3.92-1.869-5.185-1.207-1.265-2.975-1.884-5.185-1.884zm2.647 10.568c-.618.771-1.593 1.142-2.8 1.142-1.229 0-2.182-.371-2.873-1.193-.691-.764-1.025-1.884-1.025-3.295 0-1.469.364-2.582 1.025-3.375.691-.793 1.644-1.193 2.851-1.193 1.149 0 2.102.371 2.764 1.142.669.771 1.033 1.884 1.033 3.345 0 1.491-.335 2.655-.975 3.425zm22.233-7.615v-2.655h-3.36V7.738l-.102.022-3.178.916-.08.029v3.098h-5.025v-1.738c0-.793.204-1.411.56-1.811.364-.393.902-.596 1.571-.596.458 0 .945.102 1.484.327l.131.073v-2.8l-.08-.029c-.458-.145-1.076-.247-1.869-.247a6.179 6.179 0 0 0-2.669.596 4.37 4.37 0 0 0-1.818 1.76c-.436.742-.669 1.585-.669 2.553v1.913h-2.335v2.633h2.335V25.55h3.36V14.459h5.025v7.069c0 2.902 1.411 4.364 4.233 4.364.458 0 .945-.073 1.411-.145a5.352 5.352 0 0 0 1.055-.32l.022-.029v-2.655l-.131.102a2.17 2.17 0 0 1-.691.298 2.446 2.446 0 0 1-.669.095c-.662 0-1.127-.145-1.462-.516-.305-.349-.458-.916-.458-1.76V14.46h3.411z"/>
      <path fill="#f25022" style="fill:var(--color5, #f25022)" d="M0 0h15.716v15.2H0V0z"/>
      <path fill="#7fba00" style="fill:var(--color6, #7fba00)" d="M17.36 0h15.724v15.2H17.36V0z"/>
      <path fill="#00a4ef" style="fill:var(--color7, #00a4ef)" d="M0 16.793h15.716V32H0V16.793z"/>
      <path fill="#ffb900" style="fill:var(--color8, #ffb900)" d="M17.36 16.793h15.724V32H17.36V16.793z"/>
    </symbol>
    <symbol id="google" viewBox="0 0 93 32">
      <path fill="#ea4335" style="fill:var(--color9, #ea4335)" d="M39.763 16.41c0 4.442-3.437 7.712-7.648 7.712s-7.642-3.27-7.642-7.712c0-4.474 3.43-7.718 7.642-7.718s7.648 3.245 7.648 7.718zm-3.347 0c0-2.778-1.99-4.678-4.301-4.678-2.304 0-4.294 1.901-4.294 4.678 0 2.746 1.99 4.672 4.294 4.672 2.31 0 4.301-1.933 4.301-4.672z"/>
      <path fill="#fbbc05" style="fill:var(--color10, #fbbc05)" d="M56.25 16.41c0 4.442-3.43 7.712-7.642 7.712s-7.648-3.27-7.648-7.712c0-4.474 3.437-7.718 7.648-7.718s7.642 3.245 7.642 7.718zm-3.348 0c0-2.778-1.99-4.678-4.294-4.678-2.31 0-4.301 1.901-4.301 4.678 0 2.746 1.99 4.672 4.301 4.672 2.304 0 4.294-1.933 4.294-4.672z"/>
      <path fill="#4285f4" style="fill:var(--color11, #4285f4)" d="M72.051 9.158v13.85c0 5.696-3.315 8.026-7.238 8.026-3.693 0-5.92-2.502-6.758-4.544l2.918-1.229c.518 1.254 1.786 2.733 3.834 2.733 2.515 0 4.07-1.568 4.07-4.518v-1.107h-.122c-.749.934-2.189 1.754-4.013 1.754-3.808 0-7.296-3.36-7.296-7.686 0-4.352 3.488-7.744 7.296-7.744 1.818 0 3.264.819 4.013 1.728h.122V9.167h3.174v-.006zm-2.937 7.277c0-2.714-1.792-4.704-4.07-4.704-2.31 0-4.243 1.99-4.243 4.704 0 2.688 1.933 4.646 4.243 4.646 2.278 0 4.07-1.958 4.07-4.646z"/>
      <path fill="#34a853" style="fill:var(--color12, #34a853)" d="M77.293 1.043v22.605h-3.264V1.043h3.264z"/>
      <path fill="#ea4335" style="fill:var(--color9, #ea4335)" d="m90.01 18.944 2.598 1.754c-.838 1.254-2.861 3.424-6.349 3.424-4.333 0-7.565-3.392-7.565-7.718 0-4.589 3.264-7.712 7.187-7.712 3.955 0 5.888 3.181 6.522 4.909l.346.87-10.182 4.275c.781 1.549 1.99 2.336 3.693 2.336s2.886-.851 3.75-2.138zm-7.994-2.771 6.81-2.867c-.378-.96-1.504-1.632-2.829-1.632-1.702 0-4.07 1.517-3.981 4.499z"/>
      <path fill="#4285f4" style="fill:var(--color11, #4285f4)" d="M12.122 14.4v-3.27h10.893c.102.57.16 1.242.16 1.971 0 2.458-.666 5.491-2.797 7.661-2.08 2.189-4.736 3.36-8.256 3.36-6.515 0-12-5.382-12-11.981C.122 5.536 5.607.16 12.122.16c3.61 0 6.176 1.434 8.109 3.302l-2.278 2.31c-1.389-1.318-3.264-2.342-5.83-2.342-4.762 0-8.486 3.891-8.486 8.71s3.725 8.704 8.486 8.704c3.085 0 4.845-1.254 5.971-2.394.915-.928 1.517-2.246 1.754-4.058l-7.725.006z"/>
    </symbol>
    <symbol id="airbnb" viewBox="0 0 102 32">
      <path fill="#ff385c" style="fill:var(--color13, #ff385c)" d="M29.171 22.675c-.16-.39-.314-.8-.474-1.152l-.736-1.664-.032-.032c-2.195-4.8-4.538-9.683-7.021-14.483l-.102-.198c-.25-.467-.499-.992-.755-1.472-.32-.57-.627-1.178-1.139-1.76a5.26 5.26 0 0 0-1.83-1.427 5.263 5.263 0 0 0-4.525 0 5.305 5.305 0 0 0-1.824 1.427c-.467.582-.819 1.19-1.139 1.76-.25.525-.499 1.03-.755 1.504l-.102.198a383.88 383.88 0 0 0-7.021 14.483l-.064.058c-.218.518-.48 1.062-.73 1.638-.154.352-.314.73-.474 1.152a6.795 6.795 0 0 0 3.731 8.774 6.763 6.763 0 0 0 3.45.454 8.375 8.375 0 0 0 3.174-1.101c1.293-.73 2.541-1.792 3.936-3.322 1.402 1.53 2.675 2.592 3.942 3.334a8.292 8.292 0 0 0 4.013 1.146 6.747 6.747 0 0 0 4.454-1.651 6.79 6.79 0 0 0 2.278-4.179 5.928 5.928 0 0 0-.256-3.494v.006zm-14.329 1.664c-1.715-2.202-2.835-4.224-3.213-5.952a5.165 5.165 0 0 1-.096-1.958c.064-.512.256-.96.518-1.344.595-.87 1.645-1.408 2.79-1.408.544-.019 1.088.102 1.574.346s.909.608 1.222 1.056c.256.397.448.838.506 1.35.102.576.058 1.248-.102 1.958-.378 1.696-1.491 3.738-3.2 5.952zm12.71 1.479c-.115.819-.442 1.6-.947 2.259s-1.178 1.171-1.946 1.491c-.762.32-1.594.41-2.413.32-.8-.102-1.6-.365-2.419-.845a15.353 15.353 0 0 1-3.616-3.098c2.093-2.598 3.36-4.966 3.84-7.078.23-.998.256-1.901.16-2.733a5.615 5.615 0 0 0-.858-2.195c-.506-.723-1.178-1.306-1.958-1.702s-1.645-.595-2.522-.582c-1.85 0-3.494.864-4.493 2.272a5.175 5.175 0 0 0-.845 2.208 6.493 6.493 0 0 0 .16 2.733c.474 2.112 1.773 4.512 3.84 7.098a14.349 14.349 0 0 1-3.622 3.123c-.826.48-1.619.73-2.413.826a4.733 4.733 0 0 1-3.488-.941 4.748 4.748 0 0 1-1.824-3.13c-.096-.8-.026-1.6.294-2.496.096-.32.25-.64.41-1.024.218-.518.474-1.056.723-1.6l.045-.064a319.178 319.178 0 0 1 6.95-14.413l.102-.198c.25-.48.499-.992.755-1.472.262-.512.538-.998.896-1.402a3.393 3.393 0 0 1 1.139-.877 3.334 3.334 0 0 1 1.402-.307 3.294 3.294 0 0 1 2.541 1.184c.346.403.64.89.896 1.402.25.48.499.998.762 1.472l.096.198a385.589 385.589 0 0 1 6.982 14.413l.032.026c.262.518.48 1.101.73 1.6.16.39.32.704.416 1.03.192.902.294 1.702.192 2.502zm13.888-1.703a5.017 5.017 0 0 1-2.182-.461 5.1 5.1 0 0 1-1.76-1.37 6.526 6.526 0 0 1-1.594-4.48 6.953 6.953 0 0 1 1.651-4.576 5.238 5.238 0 0 1 1.83-1.382 5.238 5.238 0 0 1 2.24-.48 4.338 4.338 0 0 1 2.099.48c.64.339 1.19.832 1.594 1.44l.102-1.568h2.912v12.077h-2.925l-.096-1.76a4.497 4.497 0 0 1-1.67 1.542 4.476 4.476 0 0 1-2.202.538zm.755-2.88c.582 0 1.088-.16 1.568-.448.442-.32.8-.742 1.075-1.248.25-.512.384-1.12.384-1.805a3.464 3.464 0 0 0-.333-1.715 3.542 3.542 0 0 0-1.133-1.325c-.467-.288-1.011-.442-1.562-.442s-1.088.154-1.555.442c-.435.32-.8.742-1.075 1.254a3.962 3.962 0 0 0-.378 1.798c-.045.589.07 1.178.333 1.715a3.43 3.43 0 0 0 1.133 1.325c.467.288.973.448 1.542.448zM53.318 8.454c0 .352-.058.672-.218.934-.16.25-.378.48-.666.64s-.602.218-.922.218c-.32 0-.634-.058-.928-.218a1.942 1.942 0 0 1-.666-.64 1.833 1.833 0 0 1-.218-.934c0-.358.064-.678.218-.928.16-.301.39-.48.666-.64a1.9 1.9 0 0 1 .928-.23c.32-.006.634.07.915.218.275.154.512.371.685.64.141.294.218.614.205.941zm-3.392 15.303V11.699H53.1v12.077h-3.181l.006-.019zm11.655-8.903v.045c-.147-.07-.346-.102-.499-.134-.198-.038-.358-.038-.55-.038-.883 0-1.555.262-1.99.8-.48.55-.698 1.318-.698 2.31v5.926h-3.187V11.686h2.925l.102 1.83c.314-.64.698-1.12 1.235-1.478a3.06 3.06 0 0 1 1.805-.499c.23 0 .448.019.64.058.096.032.16.032.218.058v3.2zm1.28 8.903V6.739h3.168v6.496c.454-.576.96-1.03 1.6-1.376a5.003 5.003 0 0 1 6.068 1.306 6.559 6.559 0 0 1 1.594 4.493 6.924 6.924 0 0 1-1.658 4.576 5.246 5.246 0 0 1-1.83 1.382 5.2 5.2 0 0 1-2.24.48 4.336 4.336 0 0 1-2.093-.48 4.329 4.329 0 0 1-1.6-1.44l-.096 1.568-2.912.032v-.019zm6.131-2.522c.57 0 1.082-.16 1.562-.448.435-.32.794-.742 1.075-1.248.256-.512.378-1.12.378-1.805 0-.666-.122-1.28-.378-1.786a3.823 3.823 0 0 0-1.075-1.254c-.467-.288-1.011-.442-1.562-.442s-1.088.154-1.555.442c-.448.32-.8.742-1.088 1.254a4.056 4.056 0 0 0-.378 1.798 3.43 3.43 0 0 0 1.466 3.04c.467.288.979.448 1.555.448zm7.494 2.528V11.686h2.925l.096 1.568c.371-.602.89-1.094 1.51-1.427s1.318-.493 2.022-.461a4.079 4.079 0 0 1 2.272.646 4.076 4.076 0 0 1 1.542 1.792c.346.762.538 1.702.538 2.752v7.238H84.21v-6.816c0-.845-.192-1.504-.57-1.99-.378-.48-.902-.742-1.562-.742-.474 0-.896.102-1.261.32-.352.23-.64.518-.858.928a2.693 2.693 0 0 0-.32 1.35v6.918h-3.155zm12.493 0V6.726h3.181v6.502c.429-.589.992-1.062 1.638-1.389s1.357-.499 2.08-.506a5.02 5.02 0 0 1 3.942 1.83 6.59 6.59 0 0 1 1.587 4.48 6.95 6.95 0 0 1-1.658 4.582 5.246 5.246 0 0 1-1.83 1.382 5.195 5.195 0 0 1-2.24.474 4.193 4.193 0 0 1-2.093-.48 4.278 4.278 0 0 1-1.6-1.44l-.09 1.574-2.918.026zm6.163-2.528c.576 0 1.088-.16 1.555-.448.448-.32.8-.742 1.088-1.248.25-.512.378-1.12.378-1.805a3.43 3.43 0 0 0-1.466-3.04 2.963 2.963 0 0 0-3.11 0c-.442.32-.8.742-1.075 1.254a3.643 3.643 0 0 0-.384 1.798 3.464 3.464 0 0 0 .333 1.715 3.49 3.49 0 0 0 1.133 1.325 2.85 2.85 0 0 0 1.549.448z"/>
    </symbol>
  </defs>
</svg>
