<svg width="16.000000" height="24.000000" viewBox="0 0 16 24" fill="none" xmlns="http://www.w3.org/2000/svg" xmlns:xlink="http://www.w3.org/1999/xlink">
	<desc>
			Created with Pixso.
	</desc>
	<defs/>
	<path id="Vector" d="M13.8181 0L2.18188 0C0.977295 0 0 1.00781 0 2.25L0 21.75C0 22.9922 0.977295 24 2.18188 24L13.8181 24C15.0227 24 16 22.9922 16 21.75L16 2.25C16 1.00781 15.0227 0 13.8181 0ZM10.1819 20.958C10.1819 21.4126 9.85449 21.75 9.45459 21.75L6.50464 21.75C6.14551 21.75 5.81812 21.4126 5.81812 21C5.81812 20.5874 6.14551 20.25 6.54541 20.25L9.45459 20.25C9.85449 20.25 10.1819 20.5874 10.1819 20.958ZM13.0908 18L2.90918 18L2.90918 3L13.0908 3L13.0908 18Z" fill="#02897A" fill-opacity="1.000000" fill-rule="nonzero"/>
</svg>
