<svg width="50" height="50" fill="none" xmlns="http://www.w3.org/2000/svg">
  <defs>
    <clipPath id="a">
      <path transform="translate(13 13)" fill="#fff" fill-opacity="0" d="M0 0h24v24H0z"/>
    </clipPath>
  </defs>
  <rect rx="25" width="50" height="50" fill="#F4F5F7"/>
  <path fill="none" d="M13 13h24v24H13z"/>
  <g clip-path="url(#a)">
    <path d="M34 37h-9a1 1 0 0 1-.71-.3.984.984 0 0 1-.29-.7v-2a.99.99 0 0 1 1-1h9c.26 0 .51.1.7.29a1 1 0 0 1 .3.71v2c0 .26-.11.51-.3.7-.19.19-.44.3-.7.3Z" fill="#D6B1FF"/>
    <path d="M34 13H16a.99.99 0 0 0-1 1v2c0 .26.1.51.29.7a1 1 0 0 0 .71.3h18c.26 0 .51-.11.7-.3.19-.19.3-.44.3-.7v-2a1 1 0 0 0-.3-.71.984.984 0 0 0-.7-.29ZM34 19H16a.99.99 0 0 0-1 1v10c0 .26.1.51.29.7a1 1 0 0 0 .71.3h18c.26 0 .51-.11.7-.3.19-.19.3-.44.3-.7V20a1 1 0 0 0-.3-.71.984.984 0 0 0-.7-.29Z" fill="#11B5E4"/>
  </g>
</svg>
