<svg width="50" height="50" fill="none" xmlns="http://www.w3.org/2000/svg">
  <defs>
    <clipPath id="a">
      <path transform="translate(13 13)" fill="#fff" fill-opacity="0" d="M0 0h24v24H0z"/>
    </clipPath>
  </defs>
  <rect rx="25" width="50" height="50" fill="#F4F5F7"/>
  <g clip-path="url(#a)">
    <path d="M31 23h6l-3-4-3 4Zm0 4h6l-3 4-3-4Z" fill="#D6B1FF"/>
    <path d="M14 13h6v24h-6a1 1 0 0 1-.71-.3.984.984 0 0 1-.29-.7V14a.99.99 0 0 1 1-1ZM22 13h6c.26 0 .51.1.7.29a1 1 0 0 1 .3.71v22c0 .26-.11.51-.3.7-.19.19-.44.3-.7.3h-6V13Z" fill="#02897A"/>
  </g>
</svg>
