<svg width="50" height="50" fill="none" xmlns="http://www.w3.org/2000/svg">
  <defs>
    <clipPath id="a">
      <path transform="translate(13 13)" fill="#fff" fill-opacity="0" d="M0 0h24v24H0z"/>
    </clipPath>
  </defs>
  <rect rx="25" width="50" height="50" fill="#F4F5F7"/>
  <path fill="none" d="M13 13h24v24H13z"/>
  <g clip-path="url(#a)">
    <path d="M18 14h-3a.99.99 0 0 0-1 1v20c0 .26.1.51.29.7a1 1 0 0 0 .71.3h3V14Z" fill="#D6B1FF"/>
    <path d="M20 36h10V14H20v22Zm5-4a1 1 0 0 1-.71-.3.984.984 0 0 1-.29-.7.99.99 0 0 1 1-1c.26 0 .51.1.7.29a1 1 0 0 1 .3.71c0 .26-.11.51-.3.7-.19.19-.44.3-.7.3Zm0-14c.26 0 .51.1.7.29a1 1 0 0 1 .3.71c0 .26-.11.51-.3.7-.19.19-.44.3-.7.3a1 1 0 0 1-.71-.3.984.984 0 0 1-.29-.7.99.99 0 0 1 1-1Zm0 6c.26 0 .51.1.7.29a1 1 0 0 1 .3.71c0 .26-.11.51-.3.7-.19.19-.44.3-.7.3a1 1 0 0 1-.71-.3.984.984 0 0 1-.29-.7.99.99 0 0 1 1-1ZM35 14h-3v22h3c.26 0 .51-.11.7-.3.19-.19.3-.44.3-.7V15a1 1 0 0 0-.3-.71.984.984 0 0 0-.7-.29Z" fill="#F03E3D"/>
  </g>
</svg>
